<svg width="18" height="18" viewBox="0 0 18 18" fill="none" xmlns="http://www.w3.org/2000/svg">
<path d="M15.5851 11.4323C15.4796 11.3269 15.3365 11.2676 15.1874 11.2676C15.0382 11.2676 14.8952 11.3269 14.7897 11.4323L11.6245 14.5981L10.1125 13.1057C10.0081 12.9987 9.86541 12.9375 9.71588 12.9357C9.56635 12.9338 9.42221 12.9915 9.31517 13.0959C9.20813 13.2003 9.14696 13.343 9.14511 13.4925C9.14326 13.6421 9.20089 13.7862 9.30532 13.8932L10.8488 15.412C10.9456 15.5164 11.0626 15.6001 11.1926 15.6581C11.3226 15.7161 11.463 15.7472 11.6054 15.7495H11.6239C11.7635 15.75 11.9017 15.7227 12.0306 15.6693C12.1595 15.6159 12.2766 15.5374 12.3749 15.4384L15.5851 12.2277C15.6905 12.1222 15.7498 11.9791 15.7498 11.83C15.7498 11.6808 15.6905 11.5378 15.5851 11.4323Z" fill="#106B1E"/>
<path d="M8.48811 14.6015C7.40195 14.5022 6.36806 14.0893 5.51233 13.4131C4.6566 12.7368 4.01593 11.8264 3.66831 10.7925C3.3207 9.75873 3.28114 8.64615 3.55445 7.59026C3.82777 6.53437 4.40216 5.58071 5.2077 4.84539C6.01324 4.11006 7.01519 3.62479 8.09156 3.44864C9.16793 3.2725 10.2723 3.41308 11.2702 3.85328C12.2681 4.29348 13.1165 5.0143 13.7122 5.92799C14.3078 6.84169 14.6249 7.90884 14.625 8.99953C14.625 9.17221 14.6165 9.34321 14.6019 9.51196C14.595 9.58572 14.6028 9.6601 14.6247 9.73085C14.6467 9.80159 14.6824 9.86731 14.7298 9.92423C14.7772 9.98114 14.8353 10.0281 14.901 10.0625C14.9666 10.0969 15.0383 10.118 15.1121 10.1245C15.1858 10.1319 15.2603 10.1246 15.3311 10.1028C15.402 10.081 15.4677 10.0454 15.5246 9.99783C15.5815 9.95031 15.6282 9.8919 15.6622 9.82605C15.6962 9.76019 15.7167 9.68821 15.7224 9.61434C15.7404 9.41015 15.75 9.20596 15.75 8.99953C15.7499 7.69065 15.3693 6.41003 14.6545 5.31357C13.9397 4.21712 12.9216 3.35213 11.724 2.82392C10.5264 2.29572 9.20113 2.12708 7.90945 2.33854C6.61777 2.55001 5.41543 3.13245 4.44882 4.01495C3.48221 4.89746 2.79302 6.04195 2.46517 7.3091C2.13732 8.57625 2.18495 9.91139 2.60225 11.152C3.01956 12.3925 3.78854 13.485 4.81558 14.2964C5.84261 15.1078 7.0834 15.6031 8.38686 15.722H8.43805C8.58723 15.7286 8.73294 15.6757 8.84313 15.5749C8.95331 15.4741 9.01894 15.3337 9.02558 15.1845C9.03222 15.0353 8.97932 14.8896 8.87853 14.7794C8.77773 14.6692 8.6373 14.6036 8.48811 14.597V14.6015Z" fill="#106B1E"/>
<path d="M8.43761 6.1875V8.76712L6.91493 10.2898C6.8612 10.3417 6.81835 10.4038 6.78887 10.4724C6.75939 10.541 6.74387 10.6148 6.74322 10.6895C6.74257 10.7642 6.75681 10.8383 6.78509 10.9074C6.81337 10.9765 6.85514 11.0393 6.90795 11.0922C6.96077 11.145 7.02357 11.1867 7.0927 11.215C7.16183 11.2433 7.2359 11.2575 7.31059 11.2569C7.38528 11.2562 7.45909 11.2407 7.52771 11.2112C7.59634 11.1818 7.65841 11.1389 7.7103 11.0852L9.39779 9.39768C9.50329 9.29222 9.56257 9.14917 9.56261 9V6.1875C9.56261 6.03832 9.50334 5.89524 9.39785 5.78975C9.29237 5.68426 9.14929 5.625 9.00011 5.625C8.85092 5.625 8.70785 5.68426 8.60236 5.78975C8.49687 5.89524 8.43761 6.03832 8.43761 6.1875Z" fill="#106B1E"/>
</svg>
