<svg width="14" height="14" viewBox="0 0 14 14" fill="none" xmlns="http://www.w3.org/2000/svg">
<path d="M13.5852 8.85266C13.4797 8.7472 13.3367 8.68796 13.1875 8.68796C13.0384 8.68796 12.8953 8.7472 12.7898 8.85266L11.2188 10.4237L9.6477 8.85266C9.54162 8.75019 9.39953 8.6935 9.25204 8.69478C9.10456 8.69606 8.96347 8.75522 8.85918 8.85951C8.75489 8.9638 8.69573 9.10488 8.69445 9.25237C8.69317 9.39985 8.74987 9.54194 8.85233 9.64803L10.4234 11.2191L8.85233 12.7902C8.79861 12.842 8.75575 12.9041 8.72627 12.9727C8.69679 13.0414 8.68128 13.1152 8.68063 13.1899C8.67998 13.2646 8.69421 13.3386 8.72249 13.4077C8.75078 13.4769 8.79254 13.5397 8.84536 13.5925C8.89817 13.6453 8.96098 13.6871 9.03011 13.7154C9.09923 13.7436 9.1733 13.7579 9.24799 13.7572C9.32268 13.7566 9.39649 13.7411 9.46512 13.7116C9.53375 13.6821 9.59582 13.6392 9.6477 13.5855L11.2188 12.0145L12.7898 13.5855C12.8959 13.688 13.038 13.7447 13.1855 13.7434C13.333 13.7421 13.4741 13.683 13.5783 13.5787C13.6826 13.4744 13.7418 13.3333 13.7431 13.1858C13.7444 13.0383 13.6877 12.8962 13.5852 12.7902L12.0141 11.2191L13.5852 9.64803C13.6907 9.54255 13.7499 9.3995 13.7499 9.25034C13.7499 9.10119 13.6907 8.95814 13.5852 8.85266Z" fill="#C51D26"/>
<path d="M7 12.625C5.88748 12.625 4.79995 12.2951 3.87492 11.677C2.94989 11.0589 2.22892 10.1804 1.80318 9.1526C1.37744 8.12476 1.26604 6.99376 1.48309 5.90262C1.70013 4.81148 2.23586 3.8092 3.02253 3.02253C3.8092 2.23586 4.81148 1.70013 5.90262 1.48309C6.99376 1.26604 8.12476 1.37744 9.1526 1.80318C10.1804 2.22892 11.0589 2.94989 11.677 3.87492C12.2951 4.79995 12.625 5.88748 12.625 7C12.625 7.14919 12.6843 7.29226 12.7898 7.39775C12.8952 7.50324 13.0383 7.5625 13.1875 7.5625C13.3367 7.5625 13.4798 7.50324 13.5853 7.39775C13.6907 7.29226 13.75 7.14919 13.75 7C13.75 5.66498 13.3541 4.35994 12.6124 3.2499C11.8707 2.13987 10.8165 1.27471 9.58312 0.763816C8.34972 0.252925 6.99252 0.119252 5.68314 0.379702C4.37377 0.640153 3.17104 1.28303 2.22703 2.22703C1.28303 3.17104 0.640153 4.37377 0.379702 5.68314C0.119252 6.99252 0.252925 8.34971 0.763816 9.58312C1.27471 10.8165 2.13987 11.8707 3.2499 12.6124C4.35994 13.3541 5.66498 13.75 7 13.75C7.14919 13.75 7.29226 13.6907 7.39775 13.5853C7.50324 13.4798 7.5625 13.3367 7.5625 13.1875C7.5625 13.0383 7.50324 12.8952 7.39775 12.7898C7.29226 12.6843 7.14919 12.625 7 12.625Z" fill="#C51D26"/>
<path d="M7.00011 3.625C6.85093 3.625 6.70785 3.68426 6.60236 3.78975C6.49687 3.89524 6.43761 4.03832 6.43761 4.1875V6.76712L4.91493 8.28981C4.8612 8.3417 4.81835 8.40376 4.78887 8.47239C4.75939 8.54102 4.74387 8.61483 4.74322 8.68952C4.74258 8.76421 4.75681 8.83828 4.78509 8.90741C4.81337 8.97653 4.85514 9.03934 4.90796 9.09215C4.96077 9.14497 5.02357 9.18674 5.0927 9.21502C5.16183 9.2433 5.2359 9.25753 5.31059 9.25688C5.38528 9.25624 5.45909 9.24072 5.52772 9.21124C5.59634 9.18176 5.65841 9.13891 5.7103 9.08518L7.3978 7.39768C7.50329 7.29222 7.56258 7.14917 7.56261 7V4.1875C7.56261 4.03832 7.50334 3.89524 7.39786 3.78975C7.29237 3.68426 7.14929 3.625 7.00011 3.625Z" fill="#C51D26"/>
</svg>
