<svg width="14" height="14" viewBox="0 0 14 14" fill="none" xmlns="http://www.w3.org/2000/svg">
<g clip-path="url(#clip0_3277_4440)">
<path d="M7 0.25C5.3381 0.251185 3.73532 0.86685 2.5 1.97856V0.8125C2.5 0.663316 2.44074 0.520242 2.33525 0.414752C2.22976 0.309263 2.08668 0.25 1.9375 0.25C1.78832 0.25 1.64524 0.309263 1.53975 0.414752C1.43426 0.520242 1.375 0.663316 1.375 0.8125V2.5C1.375 2.94755 1.55279 3.37678 1.86926 3.69324C2.18572 4.00971 2.61495 4.1875 3.0625 4.1875H4.75C4.89918 4.1875 5.04226 4.12824 5.14775 4.02275C5.25324 3.91726 5.3125 3.77418 5.3125 3.625C5.3125 3.47582 5.25324 3.33274 5.14775 3.22725C5.04226 3.12176 4.89918 3.0625 4.75 3.0625H3.0625C3.04353 3.05969 3.02475 3.05574 3.00625 3.05069C3.92286 2.12753 5.13145 1.55111 6.42572 1.41981C7.72 1.28852 9.01973 1.61049 10.103 2.33078C11.1864 3.05106 11.9861 4.125 12.3658 5.36928C12.7455 6.61357 12.6815 7.95105 12.1849 9.15344C11.6882 10.3558 10.7897 11.3486 9.6426 11.9622C8.49551 12.5759 7.171 12.7724 5.89515 12.5182C4.6193 12.2641 3.47121 11.575 2.64684 10.5686C1.82248 9.56222 1.37296 8.30092 1.375 7C1.375 6.85082 1.31574 6.70774 1.21025 6.60225C1.10476 6.49676 0.961684 6.4375 0.8125 6.4375C0.663316 6.4375 0.520242 6.49676 0.414752 6.60225C0.309263 6.70774 0.25 6.85082 0.25 7C0.25 8.33502 0.645881 9.64007 1.38758 10.7501C2.12928 11.8601 3.18349 12.7253 4.41689 13.2362C5.65029 13.7471 7.00749 13.8808 8.31686 13.6203C9.62623 13.3598 10.829 12.717 11.773 11.773C12.717 10.829 13.3598 9.62623 13.6203 8.31686C13.8808 7.00749 13.7471 5.65029 13.2362 4.41689C12.7253 3.18349 11.8601 2.12928 10.7501 1.38758C9.64007 0.645881 8.33502 0.25 7 0.25V0.25Z" fill="#1570EF"/>
<path d="M7 3.625C6.85082 3.625 6.70774 3.68426 6.60225 3.78975C6.49676 3.89524 6.4375 4.03832 6.4375 4.1875V7C6.43753 7.14917 6.49682 7.29222 6.60231 7.39769L8.28981 9.08519C8.3959 9.18765 8.53799 9.24435 8.68548 9.24307C8.83296 9.24179 8.97404 9.18263 9.07834 9.07834C9.18263 8.97404 9.24178 8.83296 9.24307 8.68548C9.24435 8.53799 9.18765 8.3959 9.08519 8.28981L7.5625 6.76713V4.1875C7.5625 4.03832 7.50324 3.89524 7.39775 3.78975C7.29226 3.68426 7.14918 3.625 7 3.625Z" fill="#1570EF"/>
</g>
<defs>
<clipPath id="clip0_3277_4440">
<rect width="13.5" height="13.5" fill="white" transform="translate(0.25 0.25)"/>
</clipPath>
</defs>
</svg>
